{"title":"The.Watermen.UNCUT.2011 BRRip XViD juggs","uid":8532774,"size":748805553,"categoryP":"video","categoryS":"movies","magnet":"?xt=urn:btih:780bc67d7a4f4710b3e36dc5021f1c7d01bb949e&amp;dn=The.Watermen.UNCUT.2011+BRRip+XViD+juggs&amp;tr=udp%3A%2F%2Ftracker.openbittorrent.com%3A80&amp;tr=udp%3A%2F%2Fopen.demonii.com%3A1337&amp;tr=udp%3A%2F%2Ftracker.coppersurfer.tk%3A6969&amp;tr=udp%3A%2F%2Fexodus.desync.com%3A6969","seeders":2,"leechers":2,"uploader":"juggs99","files":3,"time":1370197165,"description":"Source : ENCOUNTERS(Thanks)\n &lt;a href=&quot;\nhttp://www.imdb.com/title/tt1715223/&quot; rel=&quot;nofollow&quot; target=&quot;_NEW&quot;&gt;\nhttp://www.imdb.com/title/tt1715223/&lt;/a&gt;\n\nFormat                                   : AVI\nFormat/Info                              : Audio Video Interleave\nFile size                                : 701 MiB\nDuration                                 : 1h 34mn\nOverall bit rate                         : 1 042 Kbps\nWriting library                          : VirtualDub build 32842/release\n\nVideo\nID                                       : 0\nFormat                                   : MPEG-4 Visual\nFormat profile                           : Advanced Simple@L5\nFormat settings, BVOP                    : 2\nFormat settings, QPel                    : No\nFormat settings, GMC                     : No warppoints\nFormat settings, Matrix                  : Default (H.263)\nMuxing mode                              : Packed bitstream\nCodec ID                                 : XVID\nCodec ID/Hint                            : XviD\nDuration                                 : 1h 34mn\nBit rate                                 : 904 Kbps\nWidth                                    : 640 pixels\nHeight                                   : 272 pixels\nDisplay aspect ratio                     : 2.35:1\nFrame rate                               : 23.976 fps\nColor space                              : YUV\nChroma subsampling                       : 4:2:0\nBit depth                                : 8 bits\nScan type                                : Progressive\nCompression mode                         : Lossy\nBits/(Pixel*Frame)                       : 0.217\nStream size                              : 609 MiB (87%)\nWriting library                          : XviD 64\n\nAudio\nID                                       : 1\nFormat                                   : MPEG Audio\nFormat version                           : Version 1\nFormat profile                           : Layer 3\nMode                                     : Joint stereo\nMode extension                           : MS Stereo\nCodec ID                                 : 55\nCodec ID/Hint                            : MP3\nDuration                                 : 1h 34mn\nBit rate mode                            : Constant\nBit rate                                 : 128 Kbps\nChannel(s)                               : 2 channels\nSampling rate                            : 48.0 KHz\nCompression mode                         : Lossy\nStream size                              : 86.2 MiB (12%)\nAlignment                                : Split accross interleaves\nInterleave, duration                     : 42 ms (1.00 video frame)\nInterleave, preload duration             : 500 ms\n\nPlot\nA clan of watermen capture a crew of sport fishermen who must then fight for their lives. \n &lt;a href=&quot;\nhttp://www.shotpix.com/images/25947076310048017040.png&quot; rel=&quot;nofollow&quot; target=&quot;_NEW&quot;&gt;\nhttp://www.shotpix.com/images/25947076310048017040.png&lt;/a&gt; &lt;a href=&quot;\nhttp://www.shotpix.com/images/93626794943870131912.png&quot; rel=&quot;nofollow&quot; target=&quot;_NEW&quot;&gt;\nhttp://www.shotpix.com/images/93626794943870131912.png&lt;/a&gt; &lt;a href=&quot;\nhttp://www.shotpix.com/images/57166168094655638787.png&quot; rel=&quot;nofollow&quot; target=&quot;_NEW&quot;&gt;\nhttp://www.shotpix.com/images/57166168094655638787.png&lt;/a&gt;","torrent":{"xt":"urn:btih:780bc67d7a4f4710b3e36dc5021f1c7d01bb949e","amp;dn":"The.Watermen.UNCUT.2011+BRRip+XViD+juggs","amp;tr":["udp%3A%2F%2Ftracker.openbittorrent.com%3A80","udp%3A%2F%2Fopen.demonii.com%3A1337","udp%3A%2F%2Ftracker.coppersurfer.tk%3A6969","udp%3A%2F%2Fexodus.desync.com%3A6969"],"infoHash":"780bc67d7a4f4710b3e36dc5021f1c7d01bb949e","infoHashBuffer":{"type":"Buffer","data":[120,11,198,125,122,79,71,16,179,227,109,197,2,31,28,125,1,187,148,158]},"announce":[],"urlList":[]}}